<?xml version="1.0" standalone="no"?>
<!DOCTYPE svg PUBLIC "-//W3C//DTD SVG 20010904//EN"
 "http://www.w3.org/TR/2001/REC-SVG-20010904/DTD/svg10.dtd">
<svg version="1.0" xmlns="http://www.w3.org/2000/svg"
 width="1000.000000pt" height="1000.000000pt" viewBox="0 0 1000.000000 1000.000000"
 preserveAspectRatio="xMidYMid meet">
<metadata>
Created by potrace 1.13, written by Peter Selinger 2001-2015
</metadata>
<g transform="translate(0.000000,1000.000000) scale(0.100000,-0.100000)"
fill="#000000" stroke="none">
<path d="M2980 8381 l0 -1619 130 -71 130 -71 89 10 c322 36 558 146 704 325
59 73 129 216 152 307 13 54 33 219 35 286 0 9 95 12 440 12 l440 0 0 -969 0
-970 83 -45 c45 -25 90 -48 99 -51 16 -6 17 30 20 527 4 586 7 620 70 818 41
128 76 204 143 306 239 367 692 552 1300 531 511 -18 872 -177 1076 -473 76
-111 143 -289 176 -469 20 -106 30 -1070 14 -1279 -28 -358 -147 -783 -340
-1209 -17 -38 -31 -72 -31 -76 0 -3 182 -105 405 -226 222 -121 404 -222 405
-225 0 -3 -334 -188 -742 -410 l-741 -405 -113 -230 c-290 -593 -406 -965
-438 -1402 l-4 -63 206 0 c114 0 467 -3 785 -7 l577 -6 0 -434 0 -433 -1394 0
-1394 0 -7 76 c-12 121 1 663 19 814 30 254 77 492 136 698 17 58 29 106 28
108 -2 1 -79 -38 -171 -88 l-167 -91 0 -759 0 -758 -540 0 -540 0 0 460 c0
253 -3 460 -6 460 -4 0 -80 -41 -170 -90 -89 -50 -170 -90 -180 -90 -9 0 -167
-82 -350 -183 l-334 -182 0 -367 0 -368 3510 0 3510 0 0 111 c0 111 0 111 -22
105 -47 -14 -424 -19 -539 -7 -592 62 -952 338 -1094 837 -59 211 -58 188 -62
1097 l-4 837 540 0 540 0 4 -802 c4 -865 3 -860 57 -955 45 -80 117 -113 250
-113 196 0 266 72 291 298 7 63 9 380 6 902 -4 863 -4 872 -56 994 -60 138
-204 206 -438 206 l-113 0 0 414 0 413 113 5 c77 4 133 13 178 28 160 53 261
187 301 397 10 52 13 276 13 968 l0 900 -30 60 c-34 68 -92 118 -158 136 -23
6 -84 9 -137 7 -82 -3 -102 -7 -143 -31 -57 -34 -90 -81 -114 -162 -16 -55
-18 -134 -21 -882 l-3 -823 -540 0 -540 0 4 833 c4 902 3 880 62 1088 94 329
282 560 569 699 205 100 421 143 721 144 110 1 237 -2 283 -7 l82 -7 0 1155 0
1155 -3510 0 -3510 0 0 -1619z m1981 1074 l393 -350 -202 -3 -202 -2 0 -395 0
-395 -390 0 -390 0 0 395 0 395 -201 2 -201 3 394 352 c216 193 396 351 400
350 3 -1 183 -159 399 -352z m2140 0 l393 -350 -202 -3 -202 -2 0 -395 0 -395
-390 0 -390 0 0 395 0 395 -201 2 -201 3 394 352 c216 193 396 351 400 350 3
-1 183 -159 399 -352z m2140 0 l393 -350 -202 -3 -202 -2 0 -395 0 -395 -390
0 -390 0 0 395 0 395 -201 2 -201 3 394 352 c216 193 396 351 400 350 3 -1
183 -159 399 -352z"/>
<path d="M2275 9716 c-57 -20 -79 -34 -120 -78 -94 -101 -90 -56 -93 -897 -3
-803 -3 -805 56 -901 62 -100 164 -145 327 -144 191 2 296 68 351 220 15 41
18 92 22 317 l4 267 -151 0 -150 0 -3 -261 c-3 -260 -3 -261 -27 -280 -32 -26
-77 -24 -106 6 l-25 24 0 736 c0 722 0 735 20 755 13 13 33 20 58 20 78 0 82
-13 82 -295 l0 -236 148 3 147 3 3 205 c4 300 -17 391 -109 474 -67 60 -121
77 -254 82 -97 4 -118 2 -180 -20z"/>
<path d="M440 9696 c0 -2 -52 -439 -115 -970 -63 -532 -115 -971 -115 -976 0
-6 59 -10 144 -10 l145 0 6 43 c7 54 55 460 55 470 0 4 41 7 90 7 50 0 90 -3
90 -7 0 -16 51 -469 56 -490 4 -23 7 -23 154 -23 l149 0 -5 33 c-8 53 -204
1890 -204 1909 0 17 -17 18 -225 18 -124 0 -225 -2 -225 -4z m249 -746 c12
-190 23 -364 26 -387 l5 -43 -65 0 c-55 0 -65 3 -65 18 0 39 51 780 57 822 l7
45 7 -55 c4 -30 17 -210 28 -400z"/>
<path d="M1160 8720 l0 -982 253 4 c214 4 259 7 302 23 108 40 160 94 190 198
14 47 16 102 13 344 l-3 288 -27 46 c-35 59 -91 96 -181 118 l-72 18 58 18
c73 23 137 63 170 107 50 66 57 103 57 323 0 176 -3 212 -21 269 -26 86 -80
144 -164 177 -56 22 -75 24 -317 27 l-258 3 0 -981z m430 732 c15 -12 25 -35
31 -68 11 -65 10 -337 0 -394 -13 -62 -47 -90 -112 -90 l-49 0 0 285 0 285 54
0 c37 0 61 -6 76 -18z m0 -820 c32 -26 39 -82 39 -307 0 -306 -9 -334 -113
-343 l-56 -4 0 336 0 336 54 0 c37 0 61 -6 76 -18z"/>
<path d="M198 7244 c-5 -4 -8 -457 -8 -1006 l0 -1000 283 5 c302 4 331 8 423
62 55 32 87 72 116 142 l23 58 3 695 c3 716 0 780 -37 865 -22 49 -70 99 -122
125 -86 45 -143 52 -414 57 -143 3 -263 2 -267 -3z m465 -255 c15 -11 31 -37
37 -57 8 -25 10 -250 8 -710 l-3 -674 -33 -29 c-28 -25 -40 -29 -92 -29 l-60
0 0 760 0 760 59 0 c44 0 65 -5 84 -21z"/>
<path d="M1197 7243 c-4 -3 -7 -456 -7 -1005 l0 -998 360 0 360 0 0 140 0 140
-195 0 -195 0 0 340 0 340 190 0 190 0 0 135 0 135 -190 0 -190 0 0 250 0 250
195 0 195 0 0 140 0 140 -353 0 c-195 0 -357 -3 -360 -7z"/>
<path d="M2017 7243 c-4 -3 -7 -456 -7 -1005 l0 -998 165 0 165 0 0 480 0 480
190 0 190 0 0 135 0 135 -190 0 -190 0 0 250 0 250 195 0 195 0 0 140 0 140
-353 0 c-195 0 -357 -3 -360 -7z"/>
<path d="M6607 6810 c-57 -15 -90 -35 -131 -81 -48 -52 -72 -106 -85 -189 -7
-41 -11 -325 -11 -772 l0 -707 -122 -3 -123 -3 299 -163 c164 -89 300 -161
301 -160 2 2 21 48 43 103 87 220 164 491 198 700 21 131 32 846 15 991 -18
155 -57 221 -153 264 -53 23 -175 34 -231 20z"/>
<path d="M3200 5715 l0 -685 -1600 0 -1600 0 0 -1280 0 -1280 1600 0 1600 0 0
-686 c0 -597 2 -685 15 -682 20 4 4845 2641 4845 2648 -1 6 -4842 2650 -4853
2650 -4 0 -7 -308 -7 -685z m-1555 -1001 c32 -11 68 -36 100 -68 75 -76 85
-117 85 -357 0 -237 -15 -313 -101 -504 -7 -16 -55 -107 -106 -201 -152 -280
-223 -460 -223 -566 l0 -38 210 0 210 0 0 -120 0 -120 -381 0 -382 0 6 158 c6
158 18 229 65 362 36 101 110 255 185 386 99 171 138 251 178 359 31 86 33 98
37 263 5 206 0 222 -73 222 -35 0 -47 -5 -64 -26 -20 -25 -21 -39 -21 -235 l0
-209 -151 0 -151 0 4 233 c3 230 3 232 31 292 45 95 98 141 205 176 74 25 261
21 337 -7z m880 0 c67 -24 136 -94 166 -170 23 -57 24 -67 24 -349 l0 -290
-26 -56 c-29 -60 -73 -101 -133 -122 l-38 -13 52 -13 c73 -19 124 -70 139
-139 18 -85 15 -538 -5 -622 -38 -167 -146 -242 -354 -244 -160 -1 -259 40
-320 132 -54 81 -60 121 -60 384 l0 238 144 0 144 0 4 -231 4 -231 29 -25 c23
-20 35 -24 64 -19 20 3 41 13 48 22 6 8 15 54 19 102 10 123 -1 441 -16 474
-14 30 -72 58 -120 58 l-30 0 0 110 0 109 38 6 c55 9 84 26 106 65 20 33 21
51 21 303 l0 269 -24 19 c-14 11 -39 19 -62 19 -69 0 -73 -17 -78 -287 l-3
-233 -144 0 -144 0 0 239 c0 210 2 247 20 303 32 105 113 179 227 208 60 15
250 5 308 -16z m-1815 -994 l0 -980 -150 0 -150 0 0 745 0 745 -105 0 -105 0
0 110 c0 108 0 110 23 110 46 0 128 31 164 63 43 38 72 98 73 150 l0 37 125 0
125 0 0 -980z"/>
<path d="M494 2216 c-128 -29 -226 -104 -267 -206 l-22 -55 0 -755 0 -755 24
-60 c36 -89 109 -157 196 -184 124 -38 287 -22 377 39 18 12 52 43 74 68 l42
46 7 -62 7 -62 94 0 94 0 0 500 0 500 -252 -2 -253 -3 -3 -122 -3 -123 82 0
81 0 -3 -244 c-4 -243 -4 -245 -28 -270 -20 -21 -34 -26 -73 -26 -62 0 -83 11
-97 51 -15 45 -15 1403 0 1448 14 39 35 51 93 51 33 0 52 -6 73 -24 l28 -24 4
-236 3 -236 174 0 174 0 0 233 c0 258 -7 302 -60 375 -73 102 -179 143 -375
148 -86 2 -151 -1 -191 -10z"/>
<path d="M1280 1210 l0 -980 180 0 180 0 0 470 0 470 100 0 100 0 0 -470 0
-470 175 0 175 0 0 980 0 980 -175 0 -175 0 0 -370 0 -370 -100 0 -100 0 0
370 0 370 -180 0 -180 0 0 -980z"/>
<path d="M2380 1210 l0 -980 180 0 180 0 0 980 0 980 -180 0 -180 0 0 -980z"/>
</g>
</svg>
